<svg xmlns="http://www.w3.org/2000/svg" viewBox="0 0 512 512">
  <defs>
    <linearGradient id="bg" x1="0" y1="0" x2="1" y2="1">
      <stop offset="0%" stop-color="#050B18"/>
      <stop offset="100%" stop-color="#0B1426"/>
    </linearGradient>
    <linearGradient id="blue" x1="0" y1="0" x2="0.4" y2="1">
      <stop offset="0%" stop-color="#1EAFFF"/>
      <stop offset="35%" stop-color="#0077FF"/>
      <stop offset="100%" stop-color="#003DAA"/>
    </linearGradient>
    <linearGradient id="silver" x1="0.3" y1="0" x2="0.9" y2="1">
      <stop offset="0%" stop-color="#FFFFFF"/>
      <stop offset="35%" stop-color="#E8E8E8"/>
      <stop offset="70%" stop-color="#AAAAAA"/>
      <stop offset="100%" stop-color="#777777"/>
    </linearGradient>
  </defs>
  <rect width="512" height="512" fill="url(#bg)"/>
  <!-- Blue F: modern angular shape -->
  <path d="M80 55 C80 55 80 55 80 55 L80 455 L155 455 L155 310 L260 310 L260 265 L155 265 L155 155 L285 155 L285 55 Z" fill="url(#blue)"/>
  <!-- Silver D: rounded right side, overlapping F -->
  <path d="M210 80 C210 38 255 12 320 12 L425 12 C425 12 430 12 430 12 L430 455 L175 455 C125 455 92 405 92 338 C92 270 125 200 175 148 Z" fill="url(#silver)"/>
</svg>
